<?xml version="1.0" standalone="no"?>
<!DOCTYPE svg PUBLIC "-//W3C//DTD SVG 20010904//EN"
 "http://www.w3.org/TR/2001/REC-SVG-20010904/DTD/svg10.dtd">
<svg version="1.0" xmlns="http://www.w3.org/2000/svg"
 width="128.000000pt" height="128.000000pt" viewBox="0 0 128.000000 128.000000"
 preserveAspectRatio="xMidYMid meet">
<metadata>
Created by potrace 1.14, written by Peter Selinger 2001-2017
</metadata>
<g transform="translate(0.000000,128.000000) scale(0.100000,-0.100000)"
fill="#000000" stroke="none">
<path d="M103 1205 c-66 -28 -66 -26 -66 -565 0 -531 0 -529 59 -560 40 -22
788 -22 829 0 57 30 58 39 58 458 0 210 1 381 2 380 2 -2 6 -25 9 -53 4 -27 8
-61 11 -75 2 -14 7 -52 10 -85 8 -75 16 -128 21 -137 3 -4 7 -24 9 -45 3 -21
9 -72 15 -113 5 -41 12 -100 16 -130 3 -32 22 -87 44 -133 38 -77 54 -94 57
-60 0 10 9 47 18 83 16 60 16 121 0 222 -8 52 -16 137 -20 208 -3 41 -8 103
-13 136 -7 53 -6 61 7 59 12 -1 18 -20 25 -74 6 -59 11 -71 25 -69 18 4 21 59
7 158 -4 30 -9 77 -12 104 -3 28 -7 53 -10 58 -9 14 -34 9 -34 -7 0 -8 -9 -15
-20 -15 -11 0 -19 3 -19 8 5 29 -5 57 -27 79 -20 20 -31 24 -57 19 -18 -3 -39
-15 -48 -26 -16 -18 -17 -16 -17 45 0 75 -23 118 -75 134 -51 16 -764 13 -804
-4z"/>
</g>
</svg>
