<?xml version="1.0" standalone="no"?>
<!DOCTYPE svg PUBLIC "-//W3C//DTD SVG 20010904//EN"
 "http://www.w3.org/TR/2001/REC-SVG-20010904/DTD/svg10.dtd">
<svg version="1.0" xmlns="http://www.w3.org/2000/svg"
 width="128.000000pt" height="128.000000pt" viewBox="0 0 128.000000 128.000000"
 preserveAspectRatio="xMidYMid meet">
<metadata>
Created by potrace 1.14, written by Peter Selinger 2001-2017
</metadata>
<g transform="translate(0.000000,128.000000) scale(0.100000,-0.100000)"
fill="#000000" stroke="none">
<path d="M139 1093 c-16 -41 -8 -306 10 -326 20 -24 321 -25 345 -1 13 13 16
43 16 173 0 109 -4 161 -12 169 -8 8 -63 12 -180 12 l-168 0 -11 -27z m164
-130 c9 -3 23 -1 30 5 7 6 22 9 34 6 17 -5 22 -16 28 -59 10 -82 -19 -124 -87
-125 -29 0 -42 7 -63 32 -22 26 -26 38 -21 69 10 66 24 92 44 84 9 -4 25 -10
35 -12z m-93 -65 c0 -19 -2 -20 -10 -8 -13 19 -13 30 0 30 6 0 10 -10 10 -22z
m216 -4 c-4 -9 -9 -15 -11 -12 -3 3 -3 13 1 22 4 9 9 15 11 12 3 -3 3 -13 -1
-22z"/>
<path d="M240 930 c0 -5 5 -10 10 -10 6 0 10 -7 10 -15 0 -8 5 -15 10 -15 6 0
10 4 10 9 0 5 3 16 6 25 5 12 0 16 -20 16 -14 0 -26 -4 -26 -10z"/>
<path d="M336 918 c8 -29 10 -31 23 -23 6 3 9 11 6 16 -4 5 -1 9 4 9 6 0 11 5
11 10 0 6 -12 10 -26 10 -22 0 -24 -3 -18 -22z"/>
<path d="M300 870 c0 -5 5 -10 10 -10 6 0 10 5 10 10 0 6 -4 10 -10 10 -5 0
-10 -4 -10 -10z"/>
<path d="M1005 1035 c-14 -13 -25 -30 -25 -37 1 -31 50 -420 54 -427 6 -10
125 4 137 16 6 6 5 37 -1 79 -13 95 -12 121 4 127 12 5 16 -9 22 -64 7 -69 17
-90 36 -71 9 9 -14 255 -28 305 -6 21 -34 23 -34 2 0 -8 -6 -15 -14 -15 -15 0
-26 21 -26 50 0 24 -46 60 -77 60 -13 0 -35 -11 -48 -25z m130 -254 c3 -58 2
-67 -4 -36 -15 70 -22 163 -11 136 6 -13 13 -58 15 -100z"/>
<path d="M604 616 c-3 -8 -4 -27 -2 -43 3 -28 4 -28 72 -28 61 0 70 2 77 21 5
14 2 29 -7 43 -13 17 -25 21 -75 21 -42 0 -61 -4 -65 -14z"/>
<path d="M604 286 c-3 -8 -4 -27 -2 -43 3 -28 4 -28 76 -31 80 -3 102 6 102
42 0 37 -19 46 -97 46 -54 0 -75 -4 -79 -14z"/>
<path d="M140 245 c0 -13 14 -15 87 -13 58 2 88 7 91 16 3 9 -19 12 -87 12
-75 0 -91 -3 -91 -15z"/>
<path d="M350 245 c0 -13 9 -16 48 -13 26 2 47 8 47 13 0 6 -21 11 -47 13 -39
3 -48 0 -48 -13z"/>
<path d="M1152 88 c5 -32 28 -35 28 -4 0 17 -5 26 -16 26 -10 0 -14 -7 -12
-22z"/>
</g>
</svg>
